<svg width="343" height="342" viewBox="0 0 343 342" fill="none" xmlns="http://www.w3.org/2000/svg">
<g clip-path="url(#clip0_4821_259901)">
<path fill-rule="evenodd" clip-rule="evenodd" d="M175.683 59.2199C172.968 67.5739 171.5 76.4905 171.5 85.75C171.5 95.0095 172.968 103.926 175.683 112.28V59.2199ZM184.049 130.435C182.529 127.95 181.132 125.382 179.866 122.739V48.7612C181.132 46.1181 182.529 43.5498 184.049 41.065V130.435ZM192.415 141.872C190.954 140.186 189.559 138.443 188.232 136.647V34.8531C189.559 33.0565 190.954 31.3135 192.415 29.6281V141.872ZM200.78 150.283C199.343 149.024 197.948 147.717 196.598 146.366V25.1336C197.948 23.7826 199.343 22.4764 200.78 21.2174V150.283ZM209.146 156.747C207.721 155.779 206.326 154.769 204.963 153.72V17.7801C206.326 16.7305 207.721 15.7209 209.146 14.7531V156.747ZM217.512 161.756C216.094 161.013 214.699 160.232 213.329 159.413V12.0867C214.699 11.2681 216.094 10.4866 217.512 9.74362V161.756ZM225.878 165.58C224.465 165.024 223.07 164.432 221.695 163.804V7.69551C223.07 7.06807 224.465 6.47591 225.878 5.92018V165.58ZM234.244 168.379C232.835 167.987 231.44 167.561 230.061 167.1V4.40007C231.44 3.93937 232.835 3.51276 234.244 3.12123V168.379ZM242.61 170.255C241.203 170.013 239.809 169.737 238.427 169.428V2.07246C239.809 1.76293 241.203 1.48676 242.61 1.24484V170.255ZM250.976 171.274C249.572 171.172 248.177 171.037 246.793 170.869V0.631231C248.177 0.462911 249.572 0.327582 250.976 0.226053V171.274ZM259.341 171.475C258.646 171.492 257.949 171.5 257.25 171.5C256.551 171.5 255.854 171.492 255.159 171.475V0.0250064C255.854 0.00836702 256.551 0 257.25 0C257.949 0 258.646 0.00836702 259.341 0.0250064V171.475ZM267.707 170.869C266.323 171.037 264.928 171.172 263.524 171.274V0.226053C264.928 0.327581 266.323 0.46291 267.707 0.63123V170.869ZM276.073 169.428C274.691 169.737 273.297 170.013 271.89 170.255V1.24484C273.297 1.48676 274.691 1.76293 276.073 2.07246V169.428ZM284.439 167.1C283.06 167.561 281.665 167.987 280.256 168.379V3.12122C281.665 3.51275 283.06 3.93937 284.439 4.40007V167.1ZM292.805 163.804C291.43 164.432 290.035 165.024 288.622 165.58V5.92017C290.035 6.47591 291.43 7.06807 292.805 7.69551V163.804ZM301.171 159.413C299.801 160.232 298.406 161.013 296.988 161.756V9.74361C298.406 10.4866 299.801 11.268 301.171 12.0867V159.413ZM309.537 153.72C308.174 154.769 306.779 155.779 305.354 156.747V14.7531C306.779 15.7209 308.174 16.7305 309.537 17.7801V153.72ZM317.902 146.366C316.552 147.717 315.157 149.024 313.72 150.283V21.2174C315.157 22.4764 316.552 23.7826 317.902 25.1336V146.366ZM326.268 136.647C324.941 138.443 323.546 140.186 322.085 141.872V29.6281C323.546 31.3135 324.941 33.0565 326.268 34.8531V136.647ZM334.634 122.739C333.368 125.382 331.971 127.95 330.451 130.435V41.0649C331.971 43.5498 333.368 46.118 334.634 48.7612V122.739ZM343 85.75C343 95.0095 341.532 103.926 338.817 112.28V59.2199C341.532 67.5738 343 76.4905 343 85.75Z" fill="#779EED"/>
<path d="M343 85.75C343 133.108 304.608 171.5 257.25 171.5V0C304.608 0 343 38.3916 343 85.75Z" fill="#779EED"/>
<path d="M0.000488281 0C47.3589 0 85.7505 38.3916 85.7505 85.75C85.7505 38.3916 124.142 0 171.5 0V85.75C171.5 133.108 133.109 171.5 85.7505 171.5C38.3921 171.5 0.000488281 133.108 0.000488281 85.75V0Z" fill="#5684D9"/>
<path d="M171.5 257.25C171.5 304.608 133.108 343 85.75 343C38.3916 343 0 304.608 0 257.25H171.5Z" fill="#38619E"/>
<path d="M0.000182471 171.5H4.18311V257.25L0 257.25L0.000182471 171.5Z" fill="#38619E"/>
<path d="M8.36603 171.5H12.549V257.25H8.36603V171.5Z" fill="#38619E"/>
<path d="M16.7319 171.5H20.9148V257.25H16.7319V171.5Z" fill="#38619E"/>
<path d="M25.0977 171.5H29.2807V257.25H25.0977V171.5Z" fill="#38619E"/>
<path d="M33.4636 171.5H37.6465V257.25H33.4636V171.5Z" fill="#38619E"/>
<path d="M41.8294 171.5H46.0124V257.25H41.8294V171.5Z" fill="#38619E"/>
<path d="M50.1953 171.5H54.3782V257.25H50.1953V171.5Z" fill="#38619E"/>
<path d="M58.5611 171.5H62.7441V257.25H58.5611V171.5Z" fill="#38619E"/>
<path d="M66.927 171.5H71.1099V257.25H66.927V171.5Z" fill="#38619E"/>
<path d="M75.2929 171.5H79.4758V257.25H75.2929V171.5Z" fill="#38619E"/>
<path d="M83.6587 171.5H87.8416V257.25H83.6587V171.5Z" fill="#38619E"/>
<path d="M92.0246 171.5H96.2075V257.25H92.0246V171.5Z" fill="#38619E"/>
<path d="M100.39 171.5H104.573V257.25H100.39V171.5Z" fill="#38619E"/>
<path d="M108.756 171.5H112.939V257.25H108.756V171.5Z" fill="#38619E"/>
<path d="M117.122 171.5H121.305V257.25H117.122V171.5Z" fill="#38619E"/>
<path d="M125.488 171.5H129.671V257.25H125.488V171.5Z" fill="#38619E"/>
<path d="M133.854 171.5H138.037V257.25H133.854V171.5Z" fill="#38619E"/>
<path d="M142.22 171.5H146.403V257.25H142.22V171.5Z" fill="#38619E"/>
<path d="M150.586 171.5H154.768V257.25H150.586V171.5Z" fill="#38619E"/>
<path d="M158.951 171.5H163.134V257.25H158.951V171.5Z" fill="#38619E"/>
<path d="M167.317 171.5H171.5L171.5 257.25L167.317 257.25V171.5Z" fill="#38619E"/>
<path d="M257.75 342.5C257.75 333.241 256.282 324.324 253.567 315.97V342.5H257.75Z" fill="#92B0F6"/>
<path d="M245.201 297.815C246.721 300.3 248.118 302.868 249.384 305.512L249.384 342.5H245.201V297.815Z" fill="#92B0F6"/>
<path d="M236.835 286.378C238.296 288.064 239.691 289.807 241.018 291.603V342.5H236.835L236.835 286.378Z" fill="#92B0F6"/>
<path d="M228.469 277.968C229.907 279.227 231.302 280.533 232.652 281.884V342.5H228.47L228.469 277.968Z" fill="#92B0F6"/>
<path d="M220.104 271.503C221.529 272.471 222.924 273.481 224.287 274.53V342.5H220.104V271.503Z" fill="#92B0F6"/>
<path d="M211.738 266.494C213.156 267.237 214.551 268.018 215.921 268.837L215.921 342.5H211.738V266.494Z" fill="#92B0F6"/>
<path d="M203.372 262.67C204.785 263.226 206.18 263.818 207.555 264.446V342.5H203.372V262.67Z" fill="#92B0F6"/>
<path d="M195.006 259.872C196.415 260.263 197.81 260.69 199.189 261.15L199.189 342.5H195.006L195.006 259.872Z" fill="#92B0F6"/>
<path d="M186.64 257.995C188.047 258.237 189.441 258.513 190.823 258.823L190.823 342.5H186.64L186.64 257.995Z" fill="#92B0F6"/>
<path d="M178.274 256.976C179.678 257.078 181.073 257.213 182.457 257.382L182.457 342.5H178.274L178.274 256.976Z" fill="#92B0F6"/>
<path d="M172 256.775C173.39 256.742 172.701 256.742 174.091 256.775L174.091 342.5H172L172 256.775Z" fill="#92B0F6"/>
<path fill-rule="evenodd" clip-rule="evenodd" d="M343.5 342.5C343.5 247.783 266.717 171 172 171V213.875C243.038 213.875 300.625 271.462 300.625 342.5L343.5 342.5Z" fill="#92B0F6"/>
</g>
<defs>
<clipPath id="clip0_4821_259901">
<rect width="343" height="342" fill="white"/>
</clipPath>
</defs>
</svg>
