<svg width="592" height="740" viewBox="0 0 592 740" fill="none" xmlns="http://www.w3.org/2000/svg">
<path d="M444 518C444 558.869 410.869 592 370 592C329.131 592 296 558.869 296 518C296 477.131 329.131 444 370 444C410.869 444 444 477.131 444 518Z" fill="#38619E"/>
<path d="M296 740L296 703C357.304 703 407 653.304 407 592L444 592C444 673.738 377.738 740 296 740Z" fill="#4172C6"/>
<path d="M592 296C551.131 296 518 262.869 518 222H592V296Z" fill="#BBCBFB"/>
<path d="M592 148C592 188.869 558.869 222 518 222L518 148L592 148Z" fill="#BBCBFB"/>
<path d="M444 148C484.869 148 518 181.131 518 222L444 222L444 148Z" fill="#BBCBFB"/>
<path d="M444 296C444 255.131 477.131 222 518 222V296L444 296Z" fill="#BBCBFB"/>
<path d="M521.61 569.105C519.267 576.314 518 584.009 518 592C518 599.991 519.267 607.686 521.61 614.895V569.105Z" fill="#92B0F6"/>
<path d="M528.829 630.562C527.517 628.418 526.312 626.201 525.22 623.92L525.219 560.08C526.312 557.799 527.517 555.582 528.829 553.438L528.829 630.562Z" fill="#92B0F6"/>
<path d="M536.049 640.432C534.789 638.977 533.584 637.473 532.439 635.923L532.439 548.077C533.584 546.527 534.789 545.023 536.049 543.568L536.049 640.432Z" fill="#92B0F6"/>
<path d="M543.268 647.69C542.028 646.603 540.824 645.476 539.659 644.31L539.659 539.69C540.824 538.524 542.028 537.396 543.268 536.31L543.268 647.69Z" fill="#92B0F6"/>
<path d="M550.488 653.268C549.258 652.433 548.054 651.562 546.878 650.656L546.878 533.344C548.054 532.438 549.258 531.567 550.488 530.732L550.488 653.268Z" fill="#92B0F6"/>
<path d="M557.707 657.591C556.484 656.95 555.28 656.276 554.098 655.57L554.098 528.43C555.28 527.724 556.483 527.05 557.707 526.408L557.707 657.591Z" fill="#92B0F6"/>
<path d="M564.927 660.891C563.707 660.411 562.504 659.9 561.317 659.359L561.317 524.641C562.504 524.1 563.707 523.589 564.927 523.109L564.927 660.891Z" fill="#92B0F6"/>
<path d="M572.146 663.306C570.93 662.969 569.727 662.6 568.537 662.203L568.537 521.797C569.727 521.4 570.93 521.031 572.146 520.694L572.146 663.306Z" fill="#92B0F6"/>
<path d="M579.366 664.926C578.152 664.717 576.949 664.479 575.756 664.212L575.756 519.788C576.949 519.521 578.152 519.283 579.366 519.074L579.366 664.926Z" fill="#92B0F6"/>
<path d="M586.585 665.805C585.374 665.717 584.17 665.6 582.976 665.455L582.976 518.545C584.17 518.399 585.374 518.283 586.585 518.195L586.585 665.805Z" fill="#92B0F6"/>
<path d="M592 665.978C590.797 666.007 591.398 666.007 590.195 665.978L590.195 518.022C591.395 517.993 590.8 517.993 592 518.022L592 665.978Z" fill="#92B0F6"/>
<path fill-rule="evenodd" clip-rule="evenodd" d="M592 444C510.262 444 444 510.262 444 592C444 673.738 510.262 740 592 740L592 444ZM592 481C530.696 481 481 530.696 481 592C481 653.304 530.696 703 592 703L592 481Z" fill="#92B0F6"/>
<path d="M592 296H588.39V444H592V296Z" fill="#38619E"/>
<path d="M584.78 296H581.171V444H584.78V296Z" fill="#38619E"/>
<path d="M577.561 296H573.951V444H577.561V296Z" fill="#38619E"/>
<path d="M570.341 296H566.732V444H570.341V296Z" fill="#38619E"/>
<path d="M563.122 296H559.512V444H563.122V296Z" fill="#38619E"/>
<path d="M555.902 296H552.293V444H555.902V296Z" fill="#38619E"/>
<path d="M548.683 296H545.073V444H548.683V296Z" fill="#38619E"/>
<path d="M541.463 296H537.854V444H541.463V296Z" fill="#38619E"/>
<path d="M534.244 296H530.634V444H534.244V296Z" fill="#38619E"/>
<path d="M527.024 296H523.415V444H527.024V296Z" fill="#38619E"/>
<path d="M519.805 296H516.195V444H519.805V296Z" fill="#38619E"/>
<path d="M512.585 296H508.976V444H512.585V296Z" fill="#38619E"/>
<path d="M505.366 296H501.756V444H505.366V296Z" fill="#38619E"/>
<path d="M498.146 296H494.537V444H498.146V296Z" fill="#38619E"/>
<path d="M490.927 296H487.317V444H490.927V296Z" fill="#38619E"/>
<path d="M483.707 296H480.098V444H483.707V296Z" fill="#38619E"/>
<path d="M476.488 296H472.878V444H476.488V296Z" fill="#38619E"/>
<path d="M469.268 296H465.659V444H469.268V296Z" fill="#38619E"/>
<path d="M462.049 296H458.439V444H462.049V296Z" fill="#38619E"/>
<path d="M454.829 296H451.22V444H454.829V296Z" fill="#38619E"/>
<path d="M447.61 296H444V444H447.61V296Z" fill="#38619E"/>
<path d="M556.85 333H482.85V407H556.85V333Z" fill="#38619E"/>
<path fill-rule="evenodd" clip-rule="evenodd" d="M151.61 51.1052C149.267 58.3145 148 66.0093 148 74C148 81.9907 149.267 89.6855 151.61 96.8948V51.1052ZM158.829 112.562C157.517 110.418 156.312 108.201 155.22 105.92V42.0797C156.312 39.7987 157.517 37.5823 158.829 35.438V112.562ZM166.049 122.432C164.789 120.977 163.584 119.473 162.439 117.923V30.0773C163.584 28.5269 164.789 27.0227 166.049 25.5682V122.432ZM173.268 129.69C172.028 128.603 170.824 127.476 169.659 126.31V21.6897C170.824 20.5237 172.028 19.3965 173.268 18.3101V129.69ZM180.488 135.268C179.258 134.433 178.054 133.562 176.878 132.656V15.3438C178.054 14.438 179.258 13.5667 180.488 12.7316V135.268ZM187.707 139.591C186.484 138.95 185.28 138.276 184.098 137.57V10.4305C185.28 9.72403 186.484 9.04963 187.707 8.40848V139.591ZM194.927 142.891C193.707 142.411 192.504 141.9 191.317 141.359V6.64103C192.504 6.09956 193.707 5.58854 194.927 5.10896V142.891ZM202.146 145.306C200.93 144.969 199.727 144.6 198.537 144.203V3.79714C199.727 3.39957 200.93 3.03142 202.146 2.69354V145.306ZM209.366 146.926C208.152 146.717 206.949 146.479 205.756 146.212V1.78848C206.949 1.52136 208.152 1.28303 209.366 1.07426V146.926ZM216.585 147.805C215.374 147.717 214.17 147.6 212.976 147.455V0.544736C214.17 0.39948 215.374 0.282695 216.585 0.195078V147.805ZM223.805 147.978C223.205 147.993 222.603 148 222 148C221.397 148 220.795 147.993 220.195 147.978V0.0215799C220.795 0.00722052 221.397 0 222 0C222.603 0 223.205 0.00722052 223.805 0.0215799V147.978ZM231.024 147.455C229.83 147.601 228.626 147.717 227.415 147.805V0.195078C228.626 0.282694 229.83 0.39948 231.024 0.544735V147.455ZM238.244 146.212C237.051 146.479 235.848 146.717 234.634 146.926V1.07426C235.848 1.28303 237.051 1.52136 238.244 1.78848V146.212ZM245.463 144.203C244.273 144.6 243.07 144.969 241.854 145.306V2.69353C243.07 3.03141 244.273 3.39957 245.463 3.79714V144.203ZM252.683 141.359C251.496 141.9 250.293 142.411 249.073 142.891V5.10896C250.293 5.58854 251.496 6.09956 252.683 6.64103V141.359ZM259.902 137.57C258.72 138.276 257.516 138.95 256.293 139.592V8.40848C257.516 9.04963 258.72 9.72403 259.902 10.4305V137.57ZM267.122 132.656C265.946 133.562 264.742 134.433 263.512 135.268V12.7316C264.742 13.5667 265.946 14.438 267.122 15.3438V132.656ZM274.341 126.31C273.176 127.476 271.972 128.603 270.732 129.69V18.3101C271.972 19.3965 273.176 20.5237 274.341 21.6897V126.31ZM281.561 117.923C280.416 119.473 279.211 120.977 277.951 122.432V25.5682C279.211 27.0227 280.416 28.5269 281.561 30.0773V117.923ZM288.78 105.92C287.688 108.201 286.483 110.418 285.171 112.562V35.438C286.483 37.5823 287.688 39.7987 288.78 42.0797V105.92ZM296 74C296 81.9907 294.733 89.6855 292.39 96.8948V51.1052C294.733 58.3145 296 66.0093 296 74Z" fill="#779EED"/>
<path d="M296 74C296 114.869 262.869 148 222 148V0C262.869 0 296 33.1309 296 74Z" fill="#779EED"/>
<path d="M0.000488281 0C40.8695 0 74.0005 33.1309 74.0005 74C74.0005 33.1309 107.131 0 148 0V74C148 114.869 114.87 148 74.0005 148C33.1314 148 0.000488281 114.869 0.000488281 74V0Z" fill="#5684D9"/>
<path d="M148 222C148 262.869 114.869 296 74 296C33.1309 296 0 262.869 0 222H148Z" fill="#38619E"/>
<path d="M0.000157467 148H3.60991V222L0 222L0.000157467 148Z" fill="#38619E"/>
<path d="M7.21967 148H10.8294V222H7.21967V148Z" fill="#38619E"/>
<path d="M14.4392 148H18.0489V222H14.4392V148Z" fill="#38619E"/>
<path d="M21.6587 148H25.2684V222H21.6587V148Z" fill="#38619E"/>
<path d="M28.8782 148H32.488V222H28.8782V148Z" fill="#38619E"/>
<path d="M36.0977 148H39.7075V222H36.0977V148Z" fill="#38619E"/>
<path d="M43.3172 148H46.927V222H43.3172V148Z" fill="#38619E"/>
<path d="M50.5367 148H54.1465V222H50.5367V148Z" fill="#38619E"/>
<path d="M57.7562 148H61.366V222H57.7562V148Z" fill="#38619E"/>
<path d="M64.9758 148H68.5855V222H64.9758V148Z" fill="#38619E"/>
<path d="M72.1953 148H75.805V222H72.1953V148Z" fill="#38619E"/>
<path d="M79.4148 148H83.0245V222H79.4148V148Z" fill="#38619E"/>
<path d="M86.6343 148H90.244V222H86.6343V148Z" fill="#38619E"/>
<path d="M93.8538 148H97.4636V222H93.8538V148Z" fill="#38619E"/>
<path d="M101.073 148H104.683V222H101.073V148Z" fill="#38619E"/>
<path d="M108.293 148H111.903V222H108.293V148Z" fill="#38619E"/>
<path d="M115.512 148H119.122V222H115.512V148Z" fill="#38619E"/>
<path d="M122.732 148H126.342V222H122.732V148Z" fill="#38619E"/>
<path d="M129.951 148H133.561V222H129.951V148Z" fill="#38619E"/>
<path d="M137.171 148H140.781V222H137.171V148Z" fill="#38619E"/>
<path d="M144.39 148H148L148 222L144.39 222V148Z" fill="#38619E"/>
<path fill-rule="evenodd" clip-rule="evenodd" d="M370 148C410.869 148 444 114.869 444 74C444 33.1309 410.869 0 370 0C329.131 0 296 33.1309 296 74C296 114.869 329.131 148 370 148ZM370 111C390.435 111 407 94.4345 407 74C407 53.5655 390.435 37 370 37C349.565 37 333 53.5655 333 74C333 94.4345 349.565 111 370 111Z" fill="#BBCBFB"/>
<path d="M335.707 60.0811C333.962 64.3778 333 69.0766 333 74C333 78.9234 333.962 83.6222 335.707 87.9188V60.0811Z" fill="#BBCBFB"/>
<path d="M342.927 99.2201C341.61 97.8068 340.402 96.2904 339.317 94.6841V53.3159C340.402 51.7096 341.61 50.1931 342.927 48.7799V99.2201Z" fill="#BBCBFB"/>
<path d="M350.146 105.228C348.889 104.427 347.684 103.552 346.537 102.61V45.3897C347.684 44.4475 348.889 43.5729 350.146 42.7722V105.228Z" fill="#BBCBFB"/>
<path d="M357.366 108.787C356.131 108.338 354.926 107.825 353.756 107.253V40.7471C354.926 40.1746 356.131 39.6619 357.366 39.2132V108.787Z" fill="#BBCBFB"/>
<path d="M364.585 110.607C363.362 110.427 362.157 110.188 360.976 109.892V38.1084C362.157 37.8122 363.362 37.5728 364.585 37.3934V110.607Z" fill="#BBCBFB"/>
<path d="M371.805 110.957C371.207 110.985 370.605 111 370 111C369.395 111 368.793 110.985 368.195 110.957V37.0432C368.793 37.0145 369.395 37 370 37C370.605 37 371.207 37.0145 371.805 37.0432V110.957Z" fill="#BBCBFB"/>
<path d="M379.024 109.892C377.843 110.188 376.638 110.427 375.415 110.607V37.3934C376.638 37.5728 377.843 37.8122 379.024 38.1083V109.892Z" fill="#BBCBFB"/>
<path d="M386.244 107.253C385.074 107.825 383.869 108.338 382.634 108.787V39.2132C383.869 39.6619 385.074 40.1745 386.244 40.7471V107.253Z" fill="#BBCBFB"/>
<path d="M393.463 102.61C392.316 103.553 391.111 104.427 389.854 105.228V42.7721C391.111 43.5729 392.316 44.4475 393.463 45.3897V102.61Z" fill="#BBCBFB"/>
<path d="M400.683 94.6842C399.598 96.2904 398.39 97.8069 397.073 99.2201V48.7799C398.39 50.1931 399.598 51.7096 400.683 53.3158V94.6842Z" fill="#BBCBFB"/>
<path d="M404.293 60.081C406.038 64.3777 407 69.0765 407 74C407 78.9234 406.038 83.6223 404.293 87.9189V60.081Z" fill="#BBCBFB"/>
<path d="M3.60976 643.105C1.26652 650.314 0 658.009 0 666C0 673.991 1.26652 681.686 3.60976 688.895V643.105Z" fill="#BBCBFB"/>
<path d="M10.8293 704.562C9.51746 702.418 8.31177 700.201 7.21951 697.92V634.08C8.31177 631.799 9.51746 629.582 10.8293 627.438V704.562Z" fill="#BBCBFB"/>
<path d="M18.0488 714.432C16.7887 712.977 15.5843 711.473 14.439 709.923V622.077C15.5843 620.527 16.7887 619.023 18.0488 617.568V714.432Z" fill="#BBCBFB"/>
<path d="M25.2683 721.69C24.0277 720.603 22.8238 719.476 21.6585 718.31V613.69C22.8238 612.524 24.0277 611.397 25.2683 610.31V721.69Z" fill="#BBCBFB"/>
<path d="M32.4878 727.268C31.2576 726.433 30.0538 725.562 28.878 724.656V607.344C30.0538 606.438 31.2576 605.567 32.4878 604.732V727.268Z" fill="#BBCBFB"/>
<path d="M39.7073 731.592C38.4835 730.95 37.2798 730.276 36.0976 729.57V602.43C37.2798 601.724 38.4835 601.05 39.7073 600.408V731.592Z" fill="#BBCBFB"/>
<path d="M46.9268 734.891C45.7074 734.411 44.5038 733.9 43.3171 733.359V598.641C44.5038 598.1 45.7074 597.589 46.9268 597.109V734.891Z" fill="#BBCBFB"/>
<path d="M54.1463 737.306C52.9302 736.969 51.7267 736.6 50.5366 736.203V595.797C51.7267 595.4 52.9302 595.031 54.1463 594.694V737.306Z" fill="#BBCBFB"/>
<path d="M61.3658 738.926C60.1522 738.717 58.9487 738.479 57.7561 738.212V593.788C58.9487 593.521 60.1522 593.283 61.3658 593.074V738.926Z" fill="#BBCBFB"/>
<path d="M68.5854 739.805C67.3738 739.717 66.1703 739.601 64.9756 739.455V592.545C66.1703 592.399 67.3738 592.283 68.5854 592.195V739.805Z" fill="#BBCBFB"/>
<path d="M75.8049 739.978C75.205 739.993 74.6033 740 74 740C73.3967 740 72.795 739.993 72.1951 739.978V592.022C72.795 592.007 73.3967 592 74 592C74.6033 592 75.205 592.007 75.8049 592.022V739.978Z" fill="#BBCBFB"/>
<path d="M83.0244 739.455C81.8297 739.601 80.6262 739.717 79.4146 739.805V592.195C80.6262 592.283 81.8297 592.399 83.0244 592.545V739.455Z" fill="#BBCBFB"/>
<path d="M90.2439 738.212C89.0513 738.479 87.8478 738.717 86.6341 738.926V593.074C87.8478 593.283 89.0513 593.521 90.2439 593.788V738.212Z" fill="#BBCBFB"/>
<path d="M97.4634 736.203C96.2733 736.6 95.0698 736.969 93.8536 737.306V594.694C95.0698 595.031 96.2733 595.4 97.4634 595.797V736.203Z" fill="#BBCBFB"/>
<path d="M104.683 733.359C103.496 733.9 102.293 734.411 101.073 734.891V597.109C102.293 597.589 103.496 598.1 104.683 598.641V733.359Z" fill="#BBCBFB"/>
<path d="M111.902 729.57C110.72 730.276 109.516 730.95 108.293 731.592V600.408C109.516 601.05 110.72 601.724 111.902 602.43V729.57Z" fill="#BBCBFB"/>
<path d="M119.122 724.656C117.946 725.562 116.742 726.433 115.512 727.268V604.732C116.742 605.567 117.946 606.438 119.122 607.344V724.656Z" fill="#BBCBFB"/>
<path d="M126.341 718.31C125.176 719.476 123.972 720.604 122.732 721.69V610.31C123.972 611.397 125.176 612.524 126.341 613.69V718.31Z" fill="#BBCBFB"/>
<path d="M133.561 709.923C132.416 711.473 131.211 712.977 129.951 714.432V617.568C131.211 619.023 132.416 620.527 133.561 622.077V709.923Z" fill="#BBCBFB"/>
<path d="M140.78 697.92C139.688 700.201 138.483 702.418 137.171 704.562V627.438C138.483 629.582 139.688 631.799 140.78 634.08V697.92Z" fill="#BBCBFB"/>
<path d="M148 666C148 673.991 146.733 681.686 144.39 688.895V643.105C146.733 650.314 148 658.009 148 666Z" fill="#BBCBFB"/>
<path d="M111 666C111 686.435 94.4345 703 74 703C53.5655 703 37 686.435 37 666C37 645.565 53.5655 629 74 629C94.4345 629 111 645.565 111 666Z" fill="#BBCBFB"/>
<path d="M74 444C74 436.01 72.7335 428.315 70.3902 421.105V444H74Z" fill="#92B0F6"/>
<path d="M63.1707 405.438C64.4825 407.583 65.6882 409.799 66.7805 412.08L66.7805 444H63.1707V405.438Z" fill="#92B0F6"/>
<path d="M55.9512 395.569C57.2113 397.023 58.4157 398.527 59.561 400.078V444H55.9512L55.9512 395.569Z" fill="#92B0F6"/>
<path d="M48.7317 388.31C49.9723 389.397 51.1762 390.524 52.3414 391.69V444H48.7317L48.7317 388.31Z" fill="#92B0F6"/>
<path d="M41.5122 382.732C42.7424 383.567 43.9462 384.438 45.1219 385.344V444H41.5122V382.732Z" fill="#92B0F6"/>
<path d="M34.2927 378.409C35.5165 379.05 36.7201 379.724 37.9024 380.431L37.9024 444H34.2927V378.409Z" fill="#92B0F6"/>
<path d="M27.0732 375.109C28.2926 375.589 29.4961 376.1 30.6829 376.641V444H27.0732V375.109Z" fill="#92B0F6"/>
<path d="M19.8536 372.694C21.0698 373.032 22.2733 373.4 23.4634 373.797L23.4634 444H19.8537L19.8536 372.694Z" fill="#92B0F6"/>
<path d="M12.6341 371.075C13.8477 371.283 15.0513 371.522 16.2439 371.789L16.2439 444H12.6341L12.6341 371.075Z" fill="#92B0F6"/>
<path d="M5.41463 370.195C6.62619 370.283 7.82968 370.4 9.02438 370.545L9.02438 444H5.41463L5.41463 370.195Z" fill="#92B0F6"/>
<path d="M0 370.022C1.19977 369.993 0.605096 369.993 1.80487 370.022L1.80487 444H6.13669e-06L0 370.022Z" fill="#92B0F6"/>
<path fill-rule="evenodd" clip-rule="evenodd" d="M148 444C148 362.262 81.7381 296 0 296V333C61.3036 333 111 382.696 111 444L148 444Z" fill="#92B0F6"/>
<path d="M0 592V555C61.3036 555 111 505.304 111 444L148 444C148 525.738 81.7381 592 0 592Z" fill="#4172C6"/>
<path d="M296 444H222L296 518V444Z" fill="#BBCBFB"/>
<path d="M296 518L222 518L296 592L296 518Z" fill="#BBCBFB"/>
<path d="M222 444L148 444L222 518L222 444Z" fill="#BBCBFB"/>
<path d="M222 518H148L222 592L222 518Z" fill="#BBCBFB"/>
<path d="M592 0H444L481 37H555V111L592 148V0Z" fill="#38619E"/>
<path d="M481 111H555L481 37L481 111Z" fill="#38619E"/>
<path fill-rule="evenodd" clip-rule="evenodd" d="M444 148C362.262 148 296 214.262 296 296V444C377.738 444 444 377.738 444 296V148ZM325.6 296C325.6 240.83 363.333 194.473 414.4 181.33V296C414.4 351.169 376.667 397.526 325.6 410.67V296Z" fill="#779EED"/>
<path d="M385.57 192.998C387.814 191.722 390.103 190.518 392.435 189.388H414.4V192.998H385.57Z" fill="#779EED"/>
<path d="M374.385 200.217C376.1 198.969 377.85 197.765 379.633 196.608L414.4 196.608V200.217H374.385Z" fill="#779EED"/>
<path d="M365.416 207.437C366.808 206.201 368.229 204.997 369.678 203.827L414.4 203.827V207.437H365.416Z" fill="#779EED"/>
<path d="M357.966 214.656C359.128 213.428 360.316 212.225 361.529 211.047L414.4 211.047V214.656L357.966 214.656Z" fill="#779EED"/>
<path d="M351.668 221.876C352.652 220.653 353.659 219.449 354.689 218.266L414.4 218.266V221.876H351.668Z" fill="#779EED"/>
<path d="M346.302 229.096C347.139 227.876 347.998 226.672 348.879 225.486L414.4 225.486V229.095L346.302 229.096Z" fill="#779EED"/>
<path d="M341.722 236.315C342.434 235.098 343.167 233.894 343.92 232.705H414.4V236.315H341.722Z" fill="#779EED"/>
<path d="M337.83 243.535C338.431 242.319 339.053 241.116 339.695 239.925L414.4 239.925V243.535L337.83 243.535Z" fill="#779EED"/>
<path d="M334.553 250.754C335.055 249.54 335.577 248.337 336.118 247.144L414.4 247.144V250.754H334.553Z" fill="#779EED"/>
<path d="M331.839 257.974C332.25 256.761 332.68 255.558 333.128 254.364H414.4V257.974L331.839 257.974Z" fill="#779EED"/>
<path d="M329.648 265.193C329.973 263.982 330.317 262.779 330.68 261.583H414.4V265.193H329.648Z" fill="#779EED"/>
<path d="M327.95 272.413C328.201 271.172 328.471 269.939 328.76 268.713H414.4V272.413L327.95 272.413Z" fill="#779EED"/>
<path d="M326.735 279.542C326.903 278.333 327.089 277.129 327.294 275.932L414.4 275.932V279.542H326.735Z" fill="#779EED"/>
<path d="M325.955 286.761C326.049 285.553 326.16 284.35 326.289 283.152H414.4V286.761L325.955 286.761Z" fill="#779EED"/>
<path d="M325.617 293.981C325.637 292.773 325.676 291.57 325.732 290.371H414.4V293.981H325.617Z" fill="#779EED"/>
<path d="M325.6 301.2V297.591H414.39C414.374 298.798 414.34 300.002 414.288 301.2H325.6Z" fill="#779EED"/>
<path d="M325.6 308.42V304.81L414.077 304.81C413.989 306.019 413.882 307.222 413.757 308.42H325.6Z" fill="#779EED"/>
<path d="M325.6 315.639V312.03H413.324C413.161 313.239 412.979 314.442 412.779 315.639L325.6 315.639Z" fill="#779EED"/>
<path d="M325.6 322.859V319.249H412.118C411.877 320.459 411.618 321.663 411.341 322.859H325.6Z" fill="#779EED"/>
<path d="M325.6 330.078V326.469H410.443C410.121 327.68 409.781 328.883 409.422 330.078L325.6 330.078Z" fill="#779EED"/>
<path d="M325.6 337.298V333.688L408.276 333.688C407.869 334.9 407.443 336.104 406.999 337.298H325.6Z" fill="#779EED"/>
<path d="M325.6 344.517V340.908H405.587C405.089 342.121 404.572 343.325 404.035 344.517L325.6 344.517Z" fill="#779EED"/>
<path d="M325.6 351.737V348.127H402.337C401.741 349.342 401.124 350.546 400.487 351.737H325.6Z" fill="#779EED"/>
<path d="M325.6 358.956V355.347H398.475C397.769 356.564 397.041 357.767 396.293 358.956H325.6Z" fill="#779EED"/>
<path d="M325.6 366.176V362.566H393.93C393.099 363.786 392.246 364.989 391.372 366.176H325.6Z" fill="#779EED"/>
<path d="M325.6 373.396V369.786H388.603C387.627 371.009 386.627 372.213 385.604 373.396H325.6Z" fill="#779EED"/>
<path d="M325.6 380.615V377.005H382.353C381.2 378.233 380.022 379.437 378.818 380.615H325.6Z" fill="#779EED"/>
<path d="M325.6 387.835V384.225H374.963C373.584 385.46 372.175 386.664 370.739 387.835H325.6Z" fill="#779EED"/>
<path d="M325.6 395.054V391.444H366.077C364.38 392.692 362.649 393.896 360.885 395.054H325.6Z" fill="#779EED"/>
<path d="M325.6 402.274V398.664H355.02C352.81 399.937 350.554 401.142 348.256 402.274H325.6Z" fill="#779EED"/>
<path d="M325.6 409.493V405.883H340.177C336.806 407.24 333.358 408.446 329.841 409.493H325.6Z" fill="#779EED"/>
<path d="M414.4 185.778H400.672C404.143 184.413 407.694 183.207 411.316 182.169H414.4V185.778Z" fill="#779EED"/>
<path fill-rule="evenodd" clip-rule="evenodd" d="M148 148C229.738 148 296 214.262 296 296V444C214.262 444 148 377.738 148 296V148ZM266.4 296C266.4 240.83 228.667 194.473 177.6 181.33V296C177.6 351.169 215.333 397.526 266.4 410.67V296Z" fill="#5684D9"/>
<path d="M206.43 192.998C204.186 191.722 201.897 190.518 199.565 189.388H177.6V192.998H206.43Z" fill="#5684D9"/>
<path d="M217.615 200.217C215.9 198.969 214.15 197.765 212.367 196.608L177.6 196.608V200.217H217.615Z" fill="#5684D9"/>
<path d="M226.584 207.437C225.192 206.201 223.771 204.997 222.322 203.827L177.6 203.827V207.437H226.584Z" fill="#5684D9"/>
<path d="M234.034 214.656C232.872 213.428 231.684 212.225 230.471 211.047L177.6 211.047V214.656L234.034 214.656Z" fill="#5684D9"/>
<path d="M240.332 221.876C239.348 220.653 238.341 219.449 237.311 218.266L177.6 218.266V221.876H240.332Z" fill="#5684D9"/>
<path d="M245.698 229.096C244.861 227.876 244.002 226.672 243.121 225.486L177.6 225.486V229.095L245.698 229.096Z" fill="#5684D9"/>
<path d="M250.278 236.315C249.566 235.098 248.833 233.894 248.079 232.705H177.6V236.315H250.278Z" fill="#5684D9"/>
<path d="M254.17 243.535C253.569 242.319 252.947 241.116 252.305 239.925L177.6 239.925V243.535L254.17 243.535Z" fill="#5684D9"/>
<path d="M257.447 250.754C256.945 249.54 256.423 248.337 255.882 247.144L177.6 247.144V250.754H257.447Z" fill="#5684D9"/>
<path d="M260.161 257.974C259.75 256.761 259.32 255.558 258.872 254.364H177.6V257.974L260.161 257.974Z" fill="#5684D9"/>
<path d="M262.352 265.193C262.027 263.982 261.683 262.779 261.32 261.583H177.6V265.193H262.352Z" fill="#5684D9"/>
<path d="M264.05 272.413C263.799 271.172 263.529 269.939 263.24 268.713H177.6V272.413L264.05 272.413Z" fill="#5684D9"/>
<path d="M265.265 279.542C265.097 278.333 264.91 277.129 264.706 275.932L177.6 275.932V279.542H265.265Z" fill="#5684D9"/>
<path d="M266.045 286.761C265.951 285.553 265.84 284.35 265.711 283.152H177.6V286.761L266.045 286.761Z" fill="#5684D9"/>
<path d="M266.383 293.981C266.363 292.773 266.324 291.57 266.268 290.371H177.6V293.981H266.383Z" fill="#5684D9"/>
<path d="M266.4 301.2V297.591H177.61C177.626 298.798 177.66 300.002 177.712 301.2H266.4Z" fill="#5684D9"/>
<path d="M266.4 308.42V304.81L177.923 304.81C178.011 306.019 178.118 307.222 178.243 308.42H266.4Z" fill="#5684D9"/>
<path d="M266.4 315.639V312.03H178.676C178.839 313.239 179.021 314.442 179.221 315.639L266.4 315.639Z" fill="#5684D9"/>
<path d="M266.4 322.859V319.249H179.882C180.122 320.459 180.382 321.663 180.659 322.859H266.4Z" fill="#5684D9"/>
<path d="M266.4 330.078V326.469H181.557C181.879 327.68 182.219 328.883 182.577 330.078L266.4 330.078Z" fill="#5684D9"/>
<path d="M266.4 337.298V333.688L183.724 333.688C184.131 334.9 184.557 336.104 185.001 337.298H266.4Z" fill="#5684D9"/>
<path d="M266.4 344.517V340.908H186.413C186.911 342.121 187.428 343.325 187.965 344.517L266.4 344.517Z" fill="#5684D9"/>
<path d="M266.4 351.737V348.127H189.662C190.259 349.342 190.876 350.546 191.513 351.737H266.4Z" fill="#5684D9"/>
<path d="M266.4 358.956V355.347H193.525C194.231 356.564 194.959 357.767 195.707 358.956H266.4Z" fill="#5684D9"/>
<path d="M266.4 366.176V362.566H198.07C198.901 363.786 199.754 364.989 200.628 366.176H266.4Z" fill="#5684D9"/>
<path d="M266.4 373.396V369.786H203.397C204.373 371.009 205.373 372.213 206.395 373.396H266.4Z" fill="#5684D9"/>
<path d="M266.4 380.615V377.005H209.647C210.8 378.233 211.978 379.437 213.182 380.615H266.4Z" fill="#5684D9"/>
<path d="M266.4 387.835V384.225H217.037C218.416 385.46 219.825 386.664 221.261 387.835H266.4Z" fill="#5684D9"/>
<path d="M266.4 395.054V391.444H225.923C227.62 392.692 229.351 393.896 231.115 395.054H266.4Z" fill="#5684D9"/>
<path d="M266.4 402.274V398.664H236.98C239.19 399.937 241.446 401.142 243.743 402.274H266.4Z" fill="#5684D9"/>
<path d="M266.4 409.493V405.883H251.823C255.194 407.24 258.642 408.446 262.159 409.493H266.4Z" fill="#5684D9"/>
<path d="M177.6 185.778H191.328C187.857 184.413 184.306 183.207 180.684 182.169H177.6V185.778Z" fill="#5684D9"/>
<path d="M148 592H296L148 740V592Z" fill="#779EED"/>
<path d="M151.61 643.105C149.267 650.314 148 658.009 148 666C148 673.991 149.267 681.686 151.61 688.895V643.105Z" fill="#779EED"/>
<path d="M158.829 704.562C157.517 702.418 156.312 700.201 155.22 697.92V634.08C156.312 631.799 157.517 629.582 158.829 627.438V704.562Z" fill="#779EED"/>
<path d="M166.049 714.432C164.789 712.977 163.584 711.473 162.439 709.923V622.077C163.584 620.527 164.789 619.023 166.049 617.568V714.432Z" fill="#779EED"/>
<path d="M173.268 721.69C172.028 720.603 170.824 719.476 169.659 718.31V613.69C170.824 612.524 172.028 611.396 173.268 610.31V721.69Z" fill="#779EED"/>
<path d="M180.488 727.268C179.258 726.433 178.054 725.562 176.878 724.656V607.344C178.054 606.438 179.258 605.567 180.488 604.732V727.268Z" fill="#779EED"/>
<path d="M187.707 731.591C186.484 730.95 185.28 730.276 184.098 729.569V602.43C185.28 601.724 186.484 601.05 187.707 600.408V731.591Z" fill="#779EED"/>
<path d="M194.927 734.891C193.707 734.411 192.504 733.9 191.317 733.359V598.641C192.504 598.1 193.707 597.589 194.927 597.109V734.891Z" fill="#779EED"/>
<path d="M202.146 737.306C200.93 736.969 199.727 736.6 198.537 736.203V595.797C199.727 595.4 200.93 595.031 202.146 594.694V737.306Z" fill="#779EED"/>
<path d="M209.366 738.926C208.152 738.717 206.949 738.479 205.756 738.211V593.788C206.949 593.521 208.152 593.283 209.366 593.074V738.926Z" fill="#779EED"/>
<path d="M216.585 739.805C215.374 739.717 214.17 739.6 212.976 739.455V592.545C214.17 592.399 215.374 592.283 216.585 592.195V739.805Z" fill="#779EED"/>
<path d="M223.805 739.978C223.205 739.993 222.603 740 222 740C221.397 740 220.795 739.993 220.195 739.978V592.022C220.795 592.007 221.397 592 222 592C222.603 592 223.205 592.007 223.805 592.022V739.978Z" fill="#779EED"/>
<path d="M231.024 739.455C229.83 739.6 228.626 739.717 227.415 739.805V592.195C228.626 592.283 229.83 592.399 231.024 592.545V739.455Z" fill="#779EED"/>
<path d="M238.244 738.211C237.051 738.479 235.848 738.717 234.634 738.926V593.074C235.848 593.283 237.051 593.521 238.244 593.788V738.211Z" fill="#779EED"/>
<path d="M245.463 736.203C244.273 736.6 243.07 736.969 241.854 737.306V594.694C243.07 595.031 244.273 595.4 245.463 595.797V736.203Z" fill="#779EED"/>
<path d="M252.683 733.359C251.496 733.9 250.293 734.411 249.073 734.891V597.109C250.293 597.589 251.496 598.1 252.683 598.641V733.359Z" fill="#779EED"/>
<path d="M259.902 729.569C258.72 730.276 257.516 730.95 256.293 731.591V600.408C257.516 601.05 258.72 601.724 259.902 602.43V729.569Z" fill="#779EED"/>
<path d="M267.122 724.656C265.946 725.562 264.742 726.433 263.512 727.268V604.732C264.742 605.567 265.946 606.438 267.122 607.344V724.656Z" fill="#779EED"/>
<path d="M274.341 718.31C273.176 719.476 271.972 720.603 270.732 721.69V610.31C271.972 611.397 273.176 612.524 274.341 613.69V718.31Z" fill="#779EED"/>
<path d="M281.561 709.923C280.416 711.473 279.211 712.977 277.951 714.432V617.568C279.211 619.023 280.416 620.527 281.561 622.077V709.923Z" fill="#779EED"/>
<path d="M288.78 697.92C287.688 700.201 286.483 702.418 285.171 704.562V627.438C286.483 629.582 287.688 631.799 288.78 634.08V697.92Z" fill="#779EED"/>
<path d="M296 666C296 673.991 294.733 681.686 292.39 688.895V643.105C294.733 650.314 296 658.009 296 666Z" fill="#779EED"/>
</svg>
